<?xml version="1.0" encoding="utf-8"?>
<!-- Generator: Adobe Illustrator 21.1.0, SVG Export Plug-In . SVG Version: 6.00 Build 0)  -->
<svg version="1.1" id="Layer_1" xmlns="http://www.w3.org/2000/svg" xmlns:xlink="http://www.w3.org/1999/xlink" x="0px" y="0px"
	 viewBox="0 0 512 512" style="enable-background:new 0 0 512 512;" xml:space="preserve">
<style type="text/css">
	.st0{fill:#1E5F30;stroke:#8BC249;stroke-width:20;stroke-miterlimit:10;}
	.st1{enable-background:new    ;}
	.st2{fill:#8BC249;}
</style>
<path class="st0" d="M236,65.5l-135,77.9c-12.4,7.1-20,20.4-20,34.6v155.9c0,14.3,7.6,27.5,20,34.6l135,77.9c12.4,7.1,27.6,7.1,40,0
	l135-77.9c12.4-7.1,20-20.4,20-34.6V178.1c0-14.3-7.6-27.5-20-34.6l-135-78C263.6,58.4,248.4,58.4,236,65.5z"/>
<g class="st1">
	<path class="st2" d="M257.8,281c-0.5,10.8-3.4,20.3-8.7,28.6c-5.3,8.3-12.8,14.7-22.4,19.2c-9.6,4.5-20.6,6.8-32.9,6.8
		c-20.4,0-36.4-6.6-48.1-19.9c-11.7-13.3-17.6-32-17.6-56.2v-7.7c0-15.2,2.6-28.5,7.9-39.9c5.3-11.4,12.9-20.2,22.8-26.4
		c9.9-6.2,21.4-9.3,34.5-9.3c18.8,0,33.9,5,45.3,14.9c11.4,9.9,17.9,23.6,19.5,41h-37.3c-0.3-9.4-2.7-16.2-7.1-20.3
		c-4.5-4.1-11.3-6.2-20.4-6.2c-9.3,0-16.1,3.5-20.4,10.4c-4.3,7-6.6,18.1-6.8,33.3v11c0,16.5,2.1,28.4,6.2,35.5
		c4.2,7.1,11.3,10.7,21.4,10.7c8.6,0,15.1-2,19.7-6.1c4.5-4,7-10.5,7.2-19.3H257.8z"/>
	<path class="st2" d="M327.6,290h-17l-7.1,43h-21l7.1-43H266v-20h26.9l4.7-28H274v-19h26.5l7.3-44h20.9l-7.2,44h17l7.3-44h21
		l-7.3,44H384v19h-27.5l-4.6,28H376v20h-27.4l-7.1,43h-21L327.6,290z M313.5,270h17.1l4.7-28h-17.1L313.5,270z"/>
</g>
</svg>
