<?xml version="1.0" encoding="utf-8"?>
<!-- Generator: Adobe Illustrator 21.1.0, SVG Export Plug-In . SVG Version: 6.00 Build 0)  -->
<svg version="1.1" xmlns="http://www.w3.org/2000/svg" xmlns:xlink="http://www.w3.org/1999/xlink" x="0px" y="0px"
	 viewBox="0 0 1024 1024" style="enable-background:new 0 0 1024 1024;" xml:space="preserve">
<style type="text/css">
	.st0{fill:url(#SVGID_1_);}
	.st1{display:none;}
	.st2{display:inline;}
	.st3{fill:#D0F4F7;}
	.st4{fill:#DCFAFC;}
	.st5{fill:#E7FDFF;}
	.st6{fill:#C4EDF0;}
	.st7{display:inline;fill:#FFFFFF;}
	.st8{fill:#5BA18B;}
	.st9{fill:#8AE0C5;}
	.st10{fill:#6FC4A9;}
	.st11{fill:#347E67;}
	.st12{fill:#C68096;}
	.st13{fill:#FFB7D2;}
	.st14{fill:#F19CB7;}
	.st15{fill:#A55B72;}
	.st16{fill:#FFFFFF;}
	.st17{display:inline;opacity:0.35;fill:url(#SVGID_2_);}
	.st18{display:inline;fill:url(#SVGID_3_);}
</style>
<g id="Yellow_BG">
	<linearGradient id="SVGID_1_" gradientUnits="userSpaceOnUse" x1="512" y1="0" x2="512" y2="1024">
		<stop  offset="0" style="stop-color:#FEF59F"/>
		<stop  offset="1" style="stop-color:#FDD837"/>
	</linearGradient>
	<rect class="st0" width="1024" height="1024"/>
</g>
<g id="Sky_BG" class="st1">
	<g transform="matrix( 1, 0, 0, 1, 0,0) " class="st2">
		<g>
			<g id="Layer0_4_MEMBER_0_FILL">
				<path class="st3" d="M0.1,0v1024h1024V0H0.1z"/>
			</g>
		</g>
	</g>
	<g transform="matrix( 1, 0, 0, 1, 0,0) " class="st2">
		<g>
			<g id="Layer0_4_MEMBER_1_FILL">
				<path class="st4" d="M857.2,415.4c-2.1-2.3-4.3-4.5-6.6-6.7c-24.9-23-54.2-33.8-88-32.5c-33.8,1.3-62.1,14.4-85.1,39.2
					c-3,3.3-5.8,6.6-8.5,10c-1.3-1.5-2.8-3-4.4-4.5c-9.1-8.6-20-12.6-32.6-12.2c-12.6,0.4-23.2,5.3-31.7,14.7c-2.4,2.4-4.4,5-6,7.8
					c-15.7-8.5-33-12.3-52.1-11.5c-20.2,0.7-38.1,6.5-53.7,17.3c-17.9-12.5-38.3-18.3-61.3-17.4c-25.7,1-47.7,10.1-65.9,27.3
					l-0.1-0.1c-20.7-19-45.1-27.9-73.3-26.9c-9.1,0.4-17.7,1.8-26,4.2c-5.1-16.7-14.5-31.5-28.3-44.3c-4.8-4.4-9.8-8.4-15.1-11.7
					c-17.1-11-36.5-16.1-58.1-15.2c-28.2,1.1-51.9,11.9-71,32.5c-0.1,0.1-0.2,0.3-0.4,0.5c-1-1.1-2.1-2.2-3.1-3.3
					c-2-2-3.9-3.8-5.9-5.5c-18.2-15.7-39.7-23.6-64.5-23.6c-5.2,0-10.4,0.4-15.4,1.1v587.1h1023.9l0.1-587.5
					c-21.8,3.8-40.4,14.1-56,31c-6.8,7.4-12.4,15.3-16.6,23.7c-13.7-6-28.6-8.7-44.8-8C888.1,401.6,871.7,406.4,857.2,415.4z"/>
			</g>
		</g>
	</g>
	<g transform="matrix( 1, 0, 0, 1, 0,0) " class="st2">
		<g>
			<g id="Layer0_4_MEMBER_2_FILL">
				<path class="st5" d="M790.6,467.7c-13.8,12.8-23.3,27.6-28.3,44.3c-8.2-2.4-16.9-3.8-26-4.2c-28.2-1-52.7,7.9-73.3,26.9
					l-0.1,0.1c-18.2-17.2-40.2-26.3-65.9-27.3c-23-0.9-43.5,4.9-61.3,17.4c-15.5-10.8-33.4-16.5-53.7-17.3
					c-19.1-0.8-36.4,3-52.1,11.5c-1.6-2.8-3.6-5.4-6-7.8c-8.5-9.4-19.1-14.3-31.7-14.7c-12.6-0.5-23.5,3.6-32.6,12.2
					c-1.6,1.5-3,3-4.4,4.5c-2.7-3.4-5.5-6.7-8.5-10c-23-24.8-51.4-37.9-85.1-39.2c-33.8-1.3-63.2,9.6-88,32.5
					c-2.3,2.1-4.5,4.4-6.6,6.7c-14.4-9-30.8-13.8-49.2-14.5c-16.2-0.6-31.1,2.1-44.8,8c-4.3-8.4-9.8-16.3-16.6-23.7
					c-15.6-16.9-34.3-27.2-56-31l0.1,320.5h1023.9v-320c-5-0.7-10.1-1.1-15.4-1.1c-24.8,0-46.3,7.9-64.5,23.6c-2,1.7-4,3.5-5.9,5.5
					c-1,1.1-2.1,2.2-3.1,3.3c-0.1-0.2-0.2-0.3-0.4-0.5c-19.1-20.5-42.8-31.4-71-32.5c-21.6-0.9-40.9,4.1-58.1,15.2
					C800.4,459.3,795.4,463.2,790.6,467.7z"/>
			</g>
		</g>
	</g>
	<g transform="matrix( 1, 0, 0, 1, 0,0) " class="st2">
		<g>
			<g id="Layer0_4_MEMBER_3_FILL">
				<path class="st6" d="M793.7,686.9c-46.6,6.8-94,10.5-142.4,11.3c-46.6,0.5-92.6-3-138.1-10.5c-46.4-7.6-91.7-17.4-135.9-29.3
					c-14.3-3.8-28.8-7.3-43.4-10.5c-32.7-7.1-66.1-12.4-100.2-15.9c-49.1-4.8-97.4-3.7-145.1,3.2c-29.4,4.4-58.9,8.6-88.5,12.7V1024
					h1024V649.2c-30.2,4.2-60.3,9.1-90.1,14.6C887.5,672.4,840.7,680.1,793.7,686.9z"/>
			</g>
		</g>
	</g>
</g>
<g id="White_BG" class="st1">
	<rect x="-0.5" y="-0.5" class="st7" width="1025" height="1025"/>
</g>
<g id="Face">
	<g>
		<circle class="st8" cx="512" cy="512" r="389"/>
		<circle class="st9" cx="512" cy="512" r="339"/>
		<circle class="st10" cx="512.5" cy="512.5" r="289.5"/>
		<path class="st11" d="M441.7,417.7c-13.2-13.2-28.1-19.9-46.3-19.9c-18.2,0-34.8,6.6-48,19.9c-11.6,13.2-18.2,28.1-18.2,46.3
			c0,18.2,6.6,33.1,18.2,44.7c13.2,13.2,29.8,19.9,48,19.9s33.1-6.6,46.3-19.9c13.2-11.6,19.9-26.5,19.9-44.7
			S454.9,430.9,441.7,417.7 M585.6,558.3c-3.3,1.7-5,5-6.6,6.6c-3.3,8.3-8.3,14.9-16.5,21.5c-14.9,9.9-31.4,16.5-49.6,16.5
			c-19.9,0-36.4-5-51.3-16.5c-8.3-6.6-13.2-13.2-14.9-21.5c-1.7-3.3-3.3-6.6-6.6-8.3c-3.3-1.7-8.3-1.7-11.6,0c-3.3,0-5,3.3-6.6,6.6
			c-1.7,3.3-3.3,6.6-1.7,9.9c3.3,13.2,11.6,23.2,24.8,33.1c18.2,14.9,41.4,21.5,67.8,21.5c26.5,0,48-8.3,66.2-21.5
			c11.6-9.9,19.9-19.9,24.8-33.1c1.7-3.3,1.7-6.6,0-9.9c-1.7-3.3-5-5-8.3-6.6C593.9,555,589,555,585.6,558.3 M694.9,462.4
			c0-18.2-6.6-33.1-19.9-46.3c-13.2-13.2-28.1-19.9-44.7-19.9c-18.2,0-34.8,6.6-48,19.9c-11.6,13.2-18.2,28.1-18.2,46.3
			s6.6,33.1,18.2,44.7c13.2,13.2,29.8,19.9,48,19.9c16.5,0,31.4-6.6,44.7-19.9C688.2,495.5,694.9,480.6,694.9,462.4z"/>
	</g>
</g>
<g id="Face2" class="st1">
	<g class="st2">
		<circle class="st12" cx="512" cy="512" r="388.9"/>
		<circle class="st13" cx="512" cy="512" r="339.2"/>
		<circle class="st14" cx="512" cy="512" r="289.6"/>
		<g>
			<path class="st15" d="M585.4,608.5c-3.3,1.7-5,5-6.6,6.6c-3.3,8.3-8.3,14.9-16.5,21.5c-14.9,9.9-31.4,16.5-49.6,16.5
				c-19.9,0-36.4-5-51.3-16.5c-8.3-6.6-13.2-13.2-14.9-21.5c-1.7-3.3-3.3-6.6-6.6-8.3c-3.3-1.7-8.3-1.7-11.6,0c-3.3,0-5,3.3-6.6,6.6
				c-1.7,3.3-3.3,6.6-1.7,9.9c3.3,13.2,11.6,23.2,24.8,33.1c18.2,14.9,41.4,21.5,67.8,21.5s48-8.3,66.2-21.5
				c11.6-9.9,19.9-19.9,24.8-33.1c1.7-3.3,1.7-6.6,0-9.9c-1.7-3.3-5-5-8.3-6.6C593.6,605.1,588.7,605.1,585.4,608.5"/>
			<g>
				<path class="st15" d="M513.2,514.1c-22,0-41-7.9-56.6-23.4c-14-14-21.1-31.5-21.1-51.9c0-20.4,6.8-37.8,21.4-54.6
					c15.5-15.3,34.4-23.1,56.2-23.1c19.2,0,36.2,7.7,51.9,23.4c16,16,23.4,33.2,23.4,54.3c0,21.1-7.4,37.9-22.7,51.3l-0.4,0.3
					l-0.4,0.4C549.4,506.4,532.4,514.1,513.2,514.1z"/>
				<path class="st16" d="M513.2,376c15.2,0,28.4,6,41.3,19c13.2,13.2,19,26.6,19,43.7c0,16.8-5.6,29.5-17.6,40l-0.8,0.7l-0.7,0.7
					c-13,13-26.1,19-41.3,19c-17.9,0-33.4-6.4-46-19c-11.2-11.2-16.7-24.8-16.7-41.3c0-16.6,5.4-30.3,17.4-44.3
					C480.4,382.2,495.6,376,513.2,376 M513.2,346c-25.5,0-48.7,9.3-67.2,27.8c-16.2,18.5-25.5,39.4-25.5,64.9
					c0,25.5,9.3,46.3,25.5,62.6c18.5,18.5,41.7,27.8,67.2,27.8c23.2,0,44-9.3,62.6-27.8c18.5-16.2,27.8-37.1,27.8-62.6
					c0-25.5-9.3-46.3-27.8-64.9C557.2,355.3,536.3,346,513.2,346L513.2,346z"/>
			</g>
		</g>
	</g>
</g>
<g id="Layer_6" class="st1">
	<linearGradient id="SVGID_2_" gradientUnits="userSpaceOnUse" x1="512" y1="123.108" x2="512" y2="900.892">
		<stop  offset="0" style="stop-color:#FFFFFF"/>
		<stop  offset="1" style="stop-color:#000000"/>
	</linearGradient>
	<circle class="st17" cx="512" cy="512" r="388.9"/>
</g>
<g id="Tear" class="st1">
	<path class="st7" d="M512,891.5c146.9,0,265.7-118.8,265.7-265.7c0-199.2-265.7-493.4-265.7-493.4S246.3,426.6,246.3,625.9
		C246.3,772.7,365.1,891.5,512,891.5z M512,531c52.4,0,94.9,42.5,94.9,94.9s-42.5,94.9-94.9,94.9s-94.9-42.5-94.9-94.9
		S459.6,531,512,531z"/>
</g>
<g id="Play" class="st1">
	<linearGradient id="SVGID_3_" gradientUnits="userSpaceOnUse" x1="512" y1="156.5001" x2="512" y2="867.4999">
		<stop  offset="0" style="stop-color:#FEF59F"/>
		<stop  offset="1" style="stop-color:#FDD837"/>
	</linearGradient>
	<path class="st18" d="M156.5,512c0,196.2,159.3,355.5,355.5,355.5S867.5,708.2,867.5,512S708.2,156.5,512,156.5
		S156.5,315.8,156.5,512z M672,583.1H352l160-213.3L672,583.1z"/>
</g>
</svg>
