<?xml version="1.0" encoding="utf-8"?>
<!-- Generator: Adobe Illustrator 21.1.0, SVG Export Plug-In . SVG Version: 6.00 Build 0)  -->
<svg version="1.1" id="Layer_1" xmlns="http://www.w3.org/2000/svg" xmlns:xlink="http://www.w3.org/1999/xlink" x="0px" y="0px"
	 viewBox="0 0 512 512" style="enable-background:new 0 0 512 512;" xml:space="preserve">
<style type="text/css">
	.st0{fill:#434343;stroke:#E0E0E0;stroke-width:20;stroke-miterlimit:10;}
	.st1{enable-background:new    ;}
	.st2{fill:#E0E0E0;}
</style>
<path class="st0" d="M236,65.5l-135,77.9c-12.4,7.1-20,20.4-20,34.6v155.9c0,14.3,7.6,27.5,20,34.6l135,77.9c12.4,7.1,27.6,7.1,40,0
	l135-77.9c12.4-7.1,20-20.4,20-34.6V178.1c0-14.3-7.6-27.5-20-34.6l-135-78C263.6,58.4,248.4,58.4,236,65.5z"/>
<g class="st1">
	<path class="st2" d="M138,209.6c0-3.7,1.3-6.7,4-9c2.6-2.3,6.1-3.5,10.3-3.5c4.2,0,7.6,1.2,10.3,3.5c2.6,2.4,4,5.4,4,9
		c0,3.7-1.3,6.7-4,9c-2.6,2.4-6.1,3.5-10.3,3.5c-4.2,0-7.6-1.2-10.3-3.5C139.4,216.3,138,213.3,138,209.6z M165,313h-26v-82h26V313z
		"/>
	<path class="st2" d="M276,260.2c0,10.8-2,20.4-6,28.7c-4,8.3-9.7,14.7-17.1,19.2c-7.4,4.5-15.8,6.7-25.2,6.7
		c-9.4,0-17.8-2.2-25.1-6.5s-13-10.5-17.1-18.6c-4.1-8.1-6.2-17.3-6.4-27.8v-6.2c0-10.9,2-20.4,6-28.7c4-8.3,9.7-14.7,17.1-19.2
		c7.4-4.5,15.9-6.8,25.4-6.8c9.4,0,17.8,2.2,25.1,6.7c7.4,4.5,13.1,10.8,17.2,19.1c4.1,8.2,6.2,17.7,6.2,28.4V260.2z M249,255.6
		c0-11.1-1.9-19.6-5.6-25.3c-3.7-5.8-9-8.7-16-8.7c-13.5,0-20.7,10.2-21.5,30.5l-0.1,8.2c0,11,1.8,19.4,5.5,25.3
		c3.6,5.9,9.1,8.8,16.2,8.8c6.8,0,12.1-2.9,15.8-8.7c3.7-5.8,5.6-14.1,5.6-25V255.6z"/>
	<path class="st2" d="M347.2,283.5c0-3.9-1.4-6.9-4.1-9.1c-2.8-2.2-7.6-4.4-14.6-6.8c-7-2.3-12.6-4.6-17-6.8
		c-14.4-7-21.5-16.7-21.5-29.1c0-6.1,1.8-11.6,5.4-16.2c3.6-4.7,8.6-8.3,15.2-11c6.5-2.6,13.9-3.9,22.1-3.9c8,0,15.1,1.4,21.4,4.3
		c6.3,2.8,11.2,6.9,14.7,12.1s5.3,11.2,5.3,18h-26.6c0-4.5-1.4-8-4.1-10.5c-2.8-2.5-6.5-3.7-11.2-3.7c-4.8,0-8.5,1.1-11.3,3.2
		c-2.8,2.1-4.1,4.8-4.1,8c0,2.8,1.5,5.4,4.6,7.7c3,2.3,8.4,4.7,16.1,7.2c7.7,2.5,13.9,5.1,18.9,8c12,6.9,18,16.4,18,28.5
		c0,9.7-3.7,17.3-11,22.8c-7.3,5.5-17.3,8.3-30.1,8.3c-9,0-17.1-1.6-24.4-4.8c-7.3-3.2-12.8-7.6-16.4-13.2
		c-3.7-5.6-5.5-12.1-5.5-19.4h26.8c0,5.9,1.5,10.3,4.6,13.1c3.1,2.8,8.1,4.2,15,4.2c4.4,0,7.9-1,10.5-2.9
		C345.9,289.6,347.2,286.9,347.2,283.5z"/>
</g>
</svg>
