<?xml version="1.0" encoding="utf-8"?>
<!-- Generator: Adobe Illustrator 21.1.0, SVG Export Plug-In . SVG Version: 6.00 Build 0)  -->
<svg version="1.1" id="Layer_1" xmlns="http://www.w3.org/2000/svg" xmlns:xlink="http://www.w3.org/1999/xlink" x="0px" y="0px"
	 viewBox="0 0 512 512" style="enable-background:new 0 0 512 512;" xml:space="preserve">
<style type="text/css">
	.st0{fill:#14499E;stroke:#38A4DD;stroke-width:20;stroke-miterlimit:10;}
	.st1{enable-background:new    ;}
	.st2{fill:#38A4DD;}
</style>
<path class="st0" d="M236,65.5l-135,77.9c-12.4,7.1-20,20.4-20,34.6v155.9c0,14.3,7.6,27.5,20,34.6l135,77.9c12.4,7.1,27.6,7.1,40,0
	l135-77.9c12.4-7.1,20-20.4,20-34.6V178.1c0-14.3-7.6-27.5-20-34.6l-135-78C263.6,58.4,248.4,58.4,236,65.5z"/>
<g class="st1">
	<path class="st2" d="M176,279v53h-37V178h61.2c11.7,0,22.1,2.2,31.1,6.5c9,4.3,16,10.4,21,18.4c5,7.9,7.4,17,7.4,27
		c0,14.9-5.4,26.8-16.1,35.7c-10.7,8.9-25.4,13.4-44.1,13.4H176z M176,251h24.1c7.1,0,12.6-1.8,16.3-5.3c3.7-3.6,5.6-8.6,5.6-15.1
		c0-7.1-1.9-12.8-5.8-17.1c-3.8-4.3-9.1-6.4-15.7-6.5H176V251z"/>
	<path class="st2" d="M338.3,299.6c0-3.1-1.6-5.5-4.8-7.4c-3.2-1.8-9.3-3.8-18.2-5.8c-9-2-16.4-4.6-22.2-7.8
		c-5.8-3.2-10.3-7.2-13.3-11.8c-3.1-4.6-4.6-9.9-4.6-15.9c0-10.6,4.4-19.3,13.1-26.2c8.7-6.9,20.2-10.3,34.4-10.3
		c15.2,0,27.5,3.5,36.7,10.3c9.2,6.9,13.9,16,13.9,27.2h-36.1c0-9.2-4.9-13.9-14.6-13.9c-3.8,0-6.9,1.1-9.5,3.1
		c-2.6,2.1-3.8,4.7-3.8,7.8c0,3.2,1.6,5.8,4.7,7.8c3.1,2,8.1,3.6,15,4.9c6.9,1.3,12.9,2.8,18.1,4.6c17.4,6,26,16.7,26,32.1
		c0,10.5-4.7,19.1-14,25.7c-9.4,6.6-21.5,9.9-36.3,9.9c-9.9,0-18.7-1.8-26.5-5.3c-7.8-3.6-13.8-8.4-18.1-14.5
		c-4.3-6.1-6.5-12.6-6.5-19.3h33.6c0.1,5.3,1.9,9.2,5.3,11.7c3.4,2.5,7.8,3.7,13.1,3.7c4.9,0,8.6-1,11-3
		C337.1,305.4,338.3,302.8,338.3,299.6z"/>
</g>
</svg>
