<?xml version="1.0" encoding="utf-8"?>
<!-- Generator: Adobe Illustrator 21.1.0, SVG Export Plug-In . SVG Version: 6.00 Build 0)  -->
<svg version="1.1" xmlns="http://www.w3.org/2000/svg" xmlns:xlink="http://www.w3.org/1999/xlink" x="0px" y="0px"
	 viewBox="0 0 1024 1024" style="enable-background:new 0 0 1024 1024;" xml:space="preserve">
<style type="text/css">
	.st0{fill:#212121;}
	.st1{fill:#FF2D55;}
	.st2{fill:#FFFFFF;}
</style>
<g id="bg">
	<rect class="st0" width="1024" height="1024"/>
</g>
<g id="Layer_4">
	<g>
		<g>
			<path class="st1" d="M226.1,577.3l-65-65l65-65l-19.8-19.8l-84.8,84.8l84.8,84.8L226.1,577.3z M299.6,577.3l65-65l-65-65
				l19.8-19.8l84.8,84.8L319.4,597L299.6,577.3z"/>
		</g>
		<g>
			<path class="st2" d="M462.6,578.4h96.8v18.3H436.2v-16.7L529,445.6h-91.3v-18.2h118v16.3L462.6,578.4z"/>
			<path class="st2" d="M709.9,542.9c-2.1,17.9-8.7,31.7-19.8,41.4c-11.1,9.7-25.9,14.6-44.3,14.6c-20,0-36-7.2-48.1-21.5
				c-12.1-14.3-18.1-33.5-18.1-57.5v-16.3c0-15.7,2.8-29.6,8.4-41.5c5.6-11.9,13.6-21.1,23.9-27.5c10.3-6.4,22.2-9.6,35.8-9.6
				c18,0,32.4,5,43.2,15.1c10.8,10,17.2,23.9,18.9,41.7h-22.4c-1.9-13.5-6.1-23.3-12.6-29.4c-6.5-6.1-15.5-9.1-27.1-9.1
				c-14.3,0-25.4,5.3-33.5,15.8c-8.1,10.5-12.1,25.6-12.1,45v16.4c0,18.4,3.8,33,11.5,43.9c7.7,10.9,18.4,16.3,32.2,16.3
				c12.4,0,21.9-2.8,28.5-8.4c6.6-5.6,11-15.4,13.2-29.4H709.9z"/>
			<path class="st2" d="M727,564.6c0-9.8,2.2-17.5,6.5-23.3c4.4-5.8,10.3-8.7,17.8-8.7c8.5,0,15,3.3,19.4,10.1v-35.3h6.9v89.3h-6.5
				l-0.3-8.4c-4.5,6.4-11,9.5-19.6,9.5c-7.2,0-13.1-2.9-17.5-8.7c-4.4-5.8-6.7-13.7-6.7-23.6V564.6z M734,565.8c0,8,1.6,14.3,4.8,19
				c3.2,4.6,7.7,6.9,13.6,6.9c8.6,0,14.6-3.8,18.2-11.3v-29.5c-3.6-8.2-9.6-12.3-18.1-12.3c-5.9,0-10.4,2.3-13.7,6.9
				C735.6,550.1,734,556.9,734,565.8z"/>
			<path class="st2" d="M820.3,597.8c-5.3,0-10.2-1.3-14.5-4c-4.3-2.6-7.7-6.3-10.1-11c-2.4-4.7-3.6-10-3.6-15.8v-2.5
				c0-6,1.2-11.5,3.5-16.3c2.3-4.8,5.6-8.7,9.8-11.4c4.2-2.8,8.7-4.2,13.6-4.2c7.6,0,13.7,2.6,18.2,7.8c4.5,5.2,6.7,12.3,6.7,21.4
				v3.9H799v1.3c0,7.1,2,13.1,6.1,17.8c4.1,4.7,9.2,7.1,15.4,7.1c3.7,0,7-0.7,9.9-2c2.8-1.4,5.4-3.5,7.8-6.5l4.4,3.3
				C837.4,594.1,830,597.8,820.3,597.8z M819,538.5c-5.2,0-9.6,1.9-13.2,5.8c-3.6,3.8-5.8,9-6.5,15.5h37.7V559
				c-0.2-6-1.9-11-5.2-14.8C828.5,540.4,824.2,538.5,819,538.5z"/>
			<path class="st2" d="M876.2,587l19.1-53.3h7.1L879,596.6h-5.6l-23.6-62.9h7.2L876.2,587z"/>
		</g>
	</g>
</g>
<g id="Squares">
	<rect class="st0" width="1" height="1"/>
	<rect x="1023" y="1023" class="st0" width="1" height="1"/>
</g>
</svg>
